# xmcd
#
# Track frame offsets: 
#        150
#        21130
#        42095
#        63021
#        84164
#        105270
#        120761
#        136193
#        157297
#        178413
#
# Disc length: 2657 seconds
#
# Revision: 0
# Processed by: cddbd v1.5.2PL0 Copyright (c) Steve Scherf et al.
# Submitted via: ExactAudioCopy v1.3
#
DISCID=700a5f0a
DTITLE=CountryBoy - Country Boy Blues
DYEAR=2005
DGENRE=Blues
TTITLE0=Country Boy
TTITLE1=K Flow
TTITLE2=Walkin'
TTITLE3=Charles Groove
TTITLE4=Turnin' Point
TTITLE5=Bad Time
TTITLE6=Rollin'
TTITLE7=Country Groove
TTITLE8=Call On Me
TTITLE9=Turn Me On
EXTD=
EXTT0=
EXTT1=
EXTT2=
EXTT3=
EXTT4=
EXTT5=
EXTT6=
EXTT7=
EXTT8=
EXTT9=
PLAYORDER=
